<?xml version="1.0" encoding="utf-8"?>
<!-- Generator: Adobe Illustrator 21.0.0, SVG Export Plug-In . SVG Version: 6.00 Build 0)  -->
<svg version="1.1" id="Layer_1" xmlns="http://www.w3.org/2000/svg" xmlns:xlink="http://www.w3.org/1999/xlink" x="0px" y="0px"
	 viewBox="0 0 640 512" style="enable-background:new 0 0 640 512;" xml:space="preserve">
<style type="text/css">
	.st0{fill:#131313;}
</style>
<path class="st0" d="M624,416H381.5c-0.7,19.8-14.7,32-32.7,32H288c-18.7,0-33-17.5-32.8-32H16c-8.8,0-16,7.2-16,16v16
	c0,35.2,28.8,64,64,64h512c35.2,0,64-28.8,64-64v-16C640,423.2,632.8,416,624,416z M576,48c0-26.4-21.6-48-48-48H112
	C85.6,0,64,21.6,64,48v336h512V48z M512,320H128V64h384V320z"/>
<path class="st0" d="M390.9,164.5l-3.2,5.5c-1.2,2-3.6,2.9-5.8,2.1c-4.5-1.7-8.7-4.1-12.4-7.2c-1.8-1.5-2.2-4-1.1-6l3.2-5.5
	c-2.7-3.1-4.7-6.7-6.1-10.5h-6.4c-2.3,0-4.3-1.7-4.7-4c-0.8-4.6-0.8-9.5,0-14.3c0.4-2.3,2.4-4,4.7-4h6.4c1.4-3.9,3.5-7.5,6.1-10.5
	l-3.2-5.5c-1.2-2-0.7-4.6,1.1-6c3.7-3,7.9-5.5,12.4-7.2c2.2-0.8,4.7,0,5.8,2.1l3.2,5.5c4-0.7,8.2-0.7,12.2,0l3.2-5.5
	c1.2-2,3.6-2.9,5.8-2.1c4.5,1.7,8.7,4.1,12.4,7.2c1.8,1.5,2.2,4,1.1,6l-3.2,5.5c2.7,3.1,4.7,6.7,6.1,10.5h6.4c2.3,0,4.3,1.7,4.7,4
	c0.8,4.6,0.8,9.5,0,14.3c-0.4,2.3-2.4,4-4.7,4h-6.4c-1.4,3.9-3.5,7.5-6.1,10.5l3.2,5.5c1.2,2,0.7,4.6-1.1,6c-3.7,3-7.9,5.5-12.4,7.2
	c-2.2,0.8-4.7,0-5.8-2.1l-3.2-5.5C399.1,165.2,395,165.2,390.9,164.5z M386.9,141.8c14.8,11.4,31.7-5.5,20.3-20.3
	C392.4,110.1,375.5,127,386.9,141.8z M342.5,201.1l13,6.5c3.9,2.2,5.6,7,4,11.2c-3.4,9.3-10.2,17.9-16.4,25.3
	c-2.8,3.4-7.8,4.3-11.7,2l-11.2-6.5c-6.2,5.3-13.3,9.5-21.1,12.2v12.9c0,4.5-3.2,8.3-7.6,9.1c-9.5,1.6-19.4,1.7-29.2,0
	c-4.4-0.8-7.7-4.6-7.7-9.1v-12.9c-7.8-2.8-15-6.9-21.1-12.2l-11.2,6.4c-3.8,2.2-8.8,1.4-11.7-2c-6.2-7.5-12.8-16-16.2-25.3
	c-1.5-4.2,0.2-8.9,4-11.2l12.8-6.5c-1.5-8-1.5-16.3,0-24.4l-12.8-6.5c-3.9-2.2-5.6-7-4-11.2c3.4-9.3,10-17.9,16.2-25.3
	c2.8-3.4,7.8-4.3,11.7-2l11.2,6.5c6.2-5.3,13.3-9.5,21.1-12.2v-13c0-4.4,3.2-8.3,7.5-9c9.5-1.6,19.4-1.7,29.2,0
	c4.4,0.8,7.7,4.6,7.7,9.1v12.9c7.8,2.8,15,6.9,21.1,12.2l11.2-6.5c3.8-2.2,8.8-1.4,11.7,2c6.2,7.5,12.8,16,16.2,25.3
	c1.5,4.2,0,8.9-3.8,11.2l-13,6.5C344,184.7,344,193,342.5,201.1z M297.3,209.2c22.8-29.6-11-63.5-40.7-40.7
	C233.8,198.1,267.6,232,297.3,209.2z M390.9,279.5l-3.2,5.5c-1.2,2-3.6,2.9-5.8,2.1c-4.5-1.7-8.7-4.1-12.4-7.2c-1.8-1.5-2.2-4-1.1-6
	l3.2-5.5c-2.7-3.1-4.7-6.7-6.1-10.5h-6.4c-2.3,0-4.3-1.7-4.7-4c-0.8-4.6-0.8-9.5,0-14.3c0.4-2.3,2.4-4,4.7-4h6.4
	c1.4-3.9,3.5-7.5,6.1-10.5l-3.2-5.5c-1.2-2-0.7-4.6,1.1-6c3.7-3,7.9-5.5,12.4-7.2c2.2-0.8,4.7,0,5.8,2.1l3.2,5.5
	c4-0.7,8.2-0.7,12.2,0l3.2-5.5c1.2-2,3.6-2.9,5.8-2.1c4.5,1.7,8.7,4.1,12.4,7.2c1.8,1.5,2.2,4,1.1,6l-3.2,5.5
	c2.7,3.1,4.7,6.7,6.1,10.5h6.4c2.3,0,4.3,1.7,4.7,4c0.8,4.6,0.8,9.5,0,14.3c-0.4,2.3-2.4,4-4.7,4h-6.4c-1.4,3.9-3.5,7.5-6.1,10.5
	l3.2,5.5c1.2,2,0.7,4.6-1.1,6c-3.7,3-7.9,5.5-12.4,7.2c-2.2,0.8-4.7,0-5.8-2.1l-3.2-5.5C399.1,280.2,395,280.2,390.9,279.5z
	 M386.9,256.8c14.8,11.4,31.7-5.5,20.3-20.3C392.4,225.1,375.5,242,386.9,256.8L386.9,256.8z"/>
</svg>
