<?xml version="1.0" encoding="utf-8"?>
<!-- Generator: Adobe Illustrator 21.0.0, SVG Export Plug-In . SVG Version: 6.00 Build 0)  -->
<svg version="1.1" id="Layer_1" xmlns="http://www.w3.org/2000/svg" xmlns:xlink="http://www.w3.org/1999/xlink" x="0px" y="0px"
	 viewBox="0 0 640 512" style="enable-background:new 0 0 640 512;" xml:space="preserve">
<style type="text/css">
	.st0{fill:#FFFFFF;}
</style>
<path class="st0" d="M624,416H381.5c-0.7,19.8-14.7,32-32.7,32H288c-18.7,0-33-17.5-32.8-32H16c-8.8,0-16,7.2-16,16v16
	c0,35.2,28.8,64,64,64h512c35.2,0,64-28.8,64-64v-16C640,423.2,632.8,416,624,416z M576,48c0-26.4-21.6-48-48-48H112
	C85.6,0,64,21.6,64,48v336h512V48z M512,320H128V64h384V320z"/>
<path class="st0" d="M335.8,240.1c0,0,35.2,35.2,37.7,37.7c8.1,8.1,21.3,8.1,29.5,0c8.1-8.1,8.1-21.3,0-29.5
	c-2.5-2.5-37.7-37.7-37.7-37.7L335.8,240.1z"/>
<path class="st0" d="M392.5,158.7l-25.1-6.3l-6.3-25.1l29-29c-16.7-5.3-35.6-1.4-48.9,11.8c-18.9,18.9-12.8,43.4,6,62.3
	c18.9,18.9,43.4,24.9,62.3,6c13.2-13.2,17.2-32.2,11.8-48.9L392.5,158.7z"/>
<polygon class="st0" points="302.4,162.6 275,135.2 267.2,111.7 235.9,96 220.2,111.7 235.9,143 259.4,150.8 286.8,178.2 "/>
<path class="st0" d="M344.6,142.1c-26.4,26.4-99,99-101.8,101.8c-9.2,9.2-9.2,24.1,0,33.2c9.2,9.2,24.1,9.2,33.2,0
	c2.9-2.9,75.5-75.5,101.8-101.8L344.6,142.1z M259.4,268.3c-4.3,0-7.8-3.5-7.8-7.8s3.5-7.8,7.8-7.8c4.3,0,7.8,3.5,7.8,7.8
	S263.7,268.3,259.4,268.3z"/>
</svg>
