<?xml version="1.0" encoding="utf-8"?>
<!-- Generator: Adobe Illustrator 21.0.0, SVG Export Plug-In . SVG Version: 6.00 Build 0)  -->
<svg version="1.1" id="Layer_1" xmlns="http://www.w3.org/2000/svg" xmlns:xlink="http://www.w3.org/1999/xlink" x="0px" y="0px"
	 viewBox="0 0 30 30" style="enable-background:new 0 0 30 30;" xml:space="preserve">
<style type="text/css">
	.st0{fill:#FFFFFF;}
</style>
<path class="st0" d="M16.8,21.4c0,0,4.5,4.5,4.8,4.8c1,1,2.7,1,3.8,0c1-1,1-2.7,0-3.8c-0.3-0.3-4.8-4.8-4.8-4.8L16.8,21.4z"/>
<path class="st0" d="M24,11l-3.2-0.8L20,7l3.7-3.7c-2.1-0.7-4.6-0.2-6.2,1.5c-2.4,2.4-1.6,5.5,0.8,8c2.4,2.4,5.5,3.2,8,0.8
	c1.7-1.7,2.2-4.1,1.5-6.2L24,11z"/>
<polygon class="st0" points="12.5,11.5 9,8 8,5 4,3 2,5 4,9 7,10 10.5,13.5 "/>
<path class="st0" d="M17.9,8.9c-3.4,3.4-12.6,12.6-13,13c-1.2,1.2-1.2,3.1,0,4.2c1.2,1.2,3.1,1.2,4.2,0c0.4-0.4,9.6-9.6,13-13
	L17.9,8.9z M7,25c-0.6,0-1-0.4-1-1s0.4-1,1-1s1,0.4,1,1S7.6,25,7,25z"/>
</svg>
