<?xml version="1.0" encoding="utf-8"?>
<!-- Generator: Adobe Illustrator 21.0.0, SVG Export Plug-In . SVG Version: 6.00 Build 0)  -->
<svg version="1.1" id="Layer_1" xmlns="http://www.w3.org/2000/svg" xmlns:xlink="http://www.w3.org/1999/xlink" x="0px" y="0px"
	 viewBox="0 0 557.6 99.5" style="enable-background:new 0 0 557.6 99.5;" xml:space="preserve">
<style type="text/css">
	.st0{fill:#FFFFFF;}
</style>
<path class="st0" d="M46.4,3.5L33.7,29.2L5.3,33.3c-5.1,0.7-7.1,7-3.4,10.6l20.5,20l-4.9,28.3c-0.9,5.1,4.5,8.9,9,6.5L52,85.4
	l25.4,13.3c4.5,2.4,9.9-1.4,9-6.5l-4.9-28.3l20.5-20c3.7-3.6,1.7-9.9-3.4-10.6l-28.4-4.1L57.6,3.5C55.3-1.1,48.7-1.2,46.4,3.5
	L46.4,3.5z"/>
<path class="st0" d="M159.8,3.5l-12.7,25.7l-28.4,4.1c-5.1,0.7-7.1,7-3.4,10.6l20.5,20L131,92.2c-0.9,5.1,4.5,8.9,9,6.5l25.4-13.3
	l25.4,13.3c4.5,2.4,9.9-1.4,9-6.5l-4.9-28.3l20.5-20c3.7-3.6,1.7-9.9-3.4-10.6l-28.4-4.1L171,3.5C168.7-1.1,162.1-1.2,159.8,3.5
	L159.8,3.5z"/>
<path class="st0" d="M273.2,3.5l-12.7,25.7l-28.4,4.1c-5.1,0.7-7.1,7-3.4,10.6l20.5,20l-4.9,28.3c-0.9,5.1,4.5,8.9,9,6.5l25.4-13.3
	l25.4,13.3c4.5,2.4,9.9-1.4,9-6.5l-4.9-28.3l20.5-20c3.7-3.6,1.7-9.9-3.4-10.6l-28.4-4.1L284.4,3.5C282.1-1.1,275.5-1.2,273.2,3.5
	L273.2,3.5z"/>
<path class="st0" d="M386.6,3.5l-12.7,25.7l-28.4,4.1c-5.1,0.7-7.1,7-3.4,10.6l20.5,20l-4.9,28.3c-0.9,5.1,4.5,8.9,9,6.5l25.4-13.3
	l25.4,13.3c4.5,2.4,9.9-1.4,9-6.5l-4.9-28.3l20.5-20c3.7-3.6,1.7-9.9-3.4-10.6l-28.4-4.1L397.8,3.5C395.5-1.1,388.9-1.2,386.6,3.5
	L386.6,3.5z"/>
<path class="st0" d="M500,3.5l-12.7,25.7l-28.4,4.1c-5.1,0.7-7.1,7-3.4,10.6l20.5,20l-4.9,28.3c-0.9,5.1,4.5,8.9,9,6.5l25.4-13.3
	L531,98.8c4.5,2.4,9.9-1.4,9-6.5l-4.9-28.3l20.5-20c3.7-3.6,1.7-9.9-3.4-10.6l-28.4-4.1L511.2,3.5C508.9-1.1,502.3-1.2,500,3.5
	L500,3.5z"/>
</svg>
