<?xml version="1.0" encoding="utf-8"?>
<!-- Generator: Adobe Illustrator 21.0.0, SVG Export Plug-In . SVG Version: 6.00 Build 0)  -->
<svg version="1.1"
	 id="svg6390" xmlns:cc="http://creativecommons.org/ns#" xmlns:dc="http://purl.org/dc/elements/1.1/" xmlns:inkscape="http://www.inkscape.org/namespaces/inkscape" xmlns:rdf="http://www.w3.org/1999/02/22-rdf-syntax-ns#" xmlns:sodipodi="http://sodipodi.sourceforge.net/DTD/sodipodi-0.dtd" xmlns:svg="http://www.w3.org/2000/svg"
	 xmlns="http://www.w3.org/2000/svg" xmlns:xlink="http://www.w3.org/1999/xlink" x="0px" y="0px" viewBox="0 0 36 36"
	 style="enable-background:new 0 0 36 36;" xml:space="preserve">
<style type="text/css">
	.st0{fill:#131313;}
</style>
<g id="layer1" transform="translate(0,-1016.3622)">
	<path id="path6247" class="st0" d="M4.8,1019.8h9c0.8,0,1.5,0.7,1.5,1.5v8c0,2.4-1,4.4-1,7.5v4v1.5v1.5c0,2.2-1.8,4-4,4h-2
		c-2.2,0-4-1.8-4-4v-1.5v-1.5v-4c0-3.1-1-5.1-1-7.5v-8C3.3,1020.5,3.9,1019.8,4.8,1019.8z M5.3,1020.8c-0.5,0-1,0.5-1,1s0.5,1,1,1
		s1-0.5,1-1S5.8,1020.8,5.3,1020.8z M7.8,1021.3c-0.7,0-0.7,1,0,1h1c0.7,0,0.7-1,0-1H7.8z M10.8,1021.3c-0.7,0-0.7,1,0,1h1
		c0.7,0,0.7-1,0-1H10.8z M5.8,1023.8c-0.7,0-0.7,1,0,1h1c0.7,0,0.7-1,0-1H5.8z M8.8,1023.8c-0.7,0-0.7,1,0,1h1c0.7,0,0.7-1,0-1H8.8z
		 M11.8,1023.8c-0.7,0-0.7,1,0,1h1c0.7,0,0.7-1,0-1H11.8z M5.8,1025.8c-0.7,0-0.7,1,0,1h1c0.7,0,0.7-1,0-1H5.8z M8.8,1025.8
		c-0.7,0-0.7,1,0,1h1c0.7,0,0.7-1,0-1H8.8z M11.8,1025.8c-0.7,0-0.7,1,0,1h1c0.7,0,0.7-1,0-1H11.8z M5.8,1027.8c-0.7,0-0.7,1,0,1h1
		c0.7,0,0.7-1,0-1H5.8z M8.8,1027.8c-0.7,0-0.7,1,0,1h1c0.7,0,0.7-1,0-1H8.8z M11.8,1027.8c-0.7,0-0.7,1,0,1h1c0.7,0,0.7-1,0-1H11.8
		z M5.8,1029.8c-0.7,0-0.7,1,0,1h1c0.7,0,0.7-1,0-1H5.8z M8.8,1029.8c-0.7,0-0.7,1,0,1h1c0.7,0,0.7-1,0-1H8.8z M11.8,1029.8
		c-0.7,0-0.7,1,0,1h1c0.7,0,0.7-1,0-1H11.8z M5.8,1032.8c-0.7,0-0.7,1,0,1h1c0.7,0,0.7-1,0-1H5.8z M11.7,1032.8c-0.7,0-0.7,1,0,1h1
		c0.7,0,0.7-1,0-1H11.7z M9.2,1033.3c-0.1,0-0.3,0.1-0.3,0.1l-1.1,1.1c-0.5,0.5,0.2,1.2,0.7,0.7l0.7-0.7l0.7,0.7
		c0.5,0.5,1.2-0.2,0.7-0.7l-1.1-1.1C9.5,1033.4,9.4,1033.3,9.2,1033.3z M6.8,1035.7c-0.1,0-0.3,0.1-0.3,0.2l-1.1,1.1
		c-0.2,0.2-0.2,0.5,0,0.7l1.1,1.1c0.5,0.5,1.2-0.2,0.7-0.7l-0.7-0.7l0.7-0.7C7.5,1036.3,7.3,1035.7,6.8,1035.7L6.8,1035.7z
		 M11.7,1035.7c-0.4,0-0.7,0.5-0.3,0.9l0.7,0.7l-0.7,0.7c-0.5,0.5,0.2,1.2,0.7,0.7l1.1-1.1c0.2-0.2,0.2-0.5,0-0.7l-1.1-1.1
		C11.9,1035.8,11.8,1035.7,11.7,1035.7L11.7,1035.7z M9.3,1035.8c-0.8,0-1.5,0.7-1.5,1.5s0.7,1.5,1.5,1.5s1.5-0.7,1.5-1.5
		S10.1,1035.8,9.3,1035.8z M9.3,1036.8c0.3,0,0.5,0.2,0.5,0.5c0,0.3-0.2,0.5-0.5,0.5s-0.5-0.2-0.5-0.5C8.8,1037,9,1036.8,9.3,1036.8
		z M10.3,1039.2c-0.1,0-0.3,0.1-0.3,0.2l-0.7,0.7l-0.7-0.7c-0.1-0.1-0.2-0.2-0.4-0.2c-0.4,0-0.7,0.5-0.3,0.9l1.1,1.1
		c0.2,0.2,0.5,0.2,0.7,0l1.1-1.1C11,1039.8,10.8,1039.2,10.3,1039.2L10.3,1039.2z M5.8,1040.8c-0.7,0-0.7,1,0,1h1c0.7,0,0.7-1,0-1
		H5.8z M11.7,1040.8c-0.7,0-0.7,1,0,1h1c0.7,0,0.7-1,0-1H11.7z M5.8,1042.8c-0.7,0-0.7,1,0,1h1c0.7,0,0.7-1,0-1H5.8z M8.8,1042.8
		c-0.7,0-0.7,1,0,1h1c0.7,0,0.7-1,0-1H8.8z M11.8,1042.8c-0.7,0-0.7,1,0,1h1c0.7,0,0.7-1,0-1H11.8z M5.8,1044.8c-0.7,0-0.7,1,0,1h1
		c0.7,0,0.7-1,0-1H5.8z M8.8,1044.8c-0.7,0-0.7,1,0,1h1c0.7,0,0.7-1,0-1H8.8z M11.8,1044.8c-0.7,0-0.7,1,0,1h1c0.7,0,0.7-1,0-1H11.8
		z"/>
</g>
<path class="st0" d="M29.5,14.5h-7c-0.6,0-1.2,0.5-1.2,1.2v14c0,0.6,0.5,1.2,1.2,1.2h7c0.6,0,1.2-0.5,1.2-1.2v-14
	C30.7,15.1,30.2,14.5,29.5,14.5z M26,21.5c-1.3,0-2.3-1-2.3-2.3c0-1.3,1-2.3,2.3-2.3c1.3,0,2.3,1,2.3,2.3
	C28.4,20.5,27.3,21.5,26,21.5z M20.2,11.1l1.7,1.7C23,11.7,24.4,11,26,11c1.6,0,3.1,0.7,4.1,1.7l1.7-1.7c-1.5-1.5-3.5-2.4-5.8-2.4
	S21.7,9.6,20.2,11.1z M26,4c-3.5,0-6.8,1.4-9.1,3.8l1.7,1.7c1.9-1.9,4.5-3.1,7.4-3.1s5.5,1.2,7.4,3.1l1.7-1.7C32.8,5.4,29.6,4,26,4z
	"/>
</svg>
